<svg xmlns="http://www.w3.org/2000/svg" viewBox="0 0 2100 900" role="img">
  <rect width="2100" height="900" fill="#fafaf8"/>
  <g stroke="#d4d4d2" stroke-width="1" fill="none">
    <path d="M120 120h1860M120 260h1860M120 400h1860M120 540h1860M120 680h1860M120 820h1860"/>
    <path d="M180 80v760M420 80v760M660 80v760M900 80v760M1140 80v760M1380 80v760M1620 80v760M1860 80v760"/>
  </g>
  <g font-family="Inter, Helvetica, Arial, sans-serif">
    <rect x="120" y="220" width="460" height="230" fill="#f0f0ee"/>
    <text x="165" y="305" font-size="42" fill="#0a0a0a" font-weight="300">业务请求</text>
    <text x="165" y="365" font-size="28" fill="#737373" font-weight="300">Slack / 邮件 / 文档</text>
    <path d="M620 335h210" stroke="#0a0a0a" stroke-width="10"/>
    <path d="M812 300l80 40-80 40z" fill="#0a0a0a"/>
    <rect x="920" y="160" width="560" height="350" fill="#0a0a0a"/>
    <text x="975" y="255" font-size="48" fill="#fafaf8" font-weight="300">法务队列</text>
    <text x="975" y="322" font-size="30" fill="#d4d4d2" font-weight="300">重复检查 · 来回沟通</text>
    <text x="975" y="402" font-size="82" fill="#002FA7" font-weight="200">days</text>
    <path d="M1520 335h210" stroke="#0a0a0a" stroke-width="10"/>
    <path d="M1712 300l80 40-80 40z" fill="#0a0a0a"/>
    <rect x="1840" y="220" width="160" height="230" fill="#002FA7"/>
    <text x="1800" y="570" font-size="40" fill="#0a0a0a" font-weight="300">发布 / 合同 / 员工请求被卡住</text>
    <rect x="250" y="650" width="1600" height="92" fill="#002FA7"/>
    <text x="300" y="710" font-size="38" fill="#fff" font-weight="300">目标不是绕过律师，而是把“第一遍”和“分流”自动化。</text>
  </g>
</svg>
